<svg width="48" height="48" viewBox="0 0 48 48" fill="none" xmlns="http://www.w3.org/2000/svg">
<g clip-path="url(#clip0_1113_2)">
<circle cx="24" cy="24" r="24" fill="black"/>
<path d="M29.3051 11.7497C29.432 11.5758 29.8338 11.4129 30.5106 11.2608C31.2085 11.0869 31.864 11 32.4773 11C33.0906 11 33.5982 11.0869 34 11.2608L30.8912 35.8044H26.577L27.8142 24.7875L27.4018 24.9179C25.4562 25.5046 23.6903 26.0804 22.1042 26.6454L21.6601 30.2308C21.1526 34.0769 19.3973 36 16.3943 36C15.3157 36 14.4804 35.6741 13.8882 35.0222C13.2961 34.3485 13 33.4902 13 32.4472C13 30.1221 14.5967 28.0252 17.79 26.1565L19.4079 12.0104C19.8097 11.7279 20.3384 11.4889 20.994 11.2934C21.6495 11.0978 22.284 11 22.8973 11C23.5106 11 23.9124 11.0109 24.1027 11.0326L22.4532 24.0052C23.7432 23.5272 25.3716 23.0165 27.3384 22.4733L28.0997 22.2777L29.3051 11.7497ZM15.2205 31.9583C15.2205 32.6536 15.5272 33.0013 16.1405 33.0013C16.4789 33.0013 16.7009 32.9035 16.8066 32.708C16.9124 32.4907 16.9864 32.3168 17.0287 32.1864C17.0921 32.0343 17.145 31.8388 17.1873 31.5997C17.2296 31.3607 17.2613 31.1543 17.2825 30.9804C17.3036 30.7849 17.3248 30.535 17.3459 30.2308C17.3671 29.9266 17.3882 29.6875 17.4094 29.5137L17.4728 29.0248C15.9713 30.0895 15.2205 31.0674 15.2205 31.9583Z" fill="white"/>
</g>
<defs>
<clipPath id="clip0_1113_2">
<rect width="48" height="48" fill="white"/>
</clipPath>
</defs>
</svg>
